<?xml version="1.0" encoding="UTF-8"?>
<!DOCTYPE svg PUBLIC "-//W3C//DTD SVG 1.1//EN" "http://www.w3.org/Graphics/SVG/1.1/DTD/svg11.dtd">
<svg xmlns="http://www.w3.org/2000/svg" version="1.1" width="48px" height="48px" style="shape-rendering:geometricPrecision; text-rendering:geometricPrecision; image-rendering:optimizeQuality; fill-rule:evenodd; clip-rule:evenodd" xmlns:xlink="http://www.w3.org/1999/xlink">
    <g><path style="opacity:0.85" fill="#ff9700" d="M 29.5,4.5 C 32.1667,5.5 34.8333,6.5 37.5,7.5C 37.7991,9.97301 38.7991,12.1397 40.5,14C 38.7991,15.8603 37.7991,18.027 37.5,20.5C 35.027,20.7991 32.8603,21.7991 31,23.5C 29.1397,21.7991 26.973,20.7991 24.5,20.5C 24.2009,18.027 23.2009,15.8603 21.5,14C 23.2009,12.1397 24.2009,9.97301 24.5,7.5C 26.9328,7.7271 28.5994,6.7271 29.5,4.5 Z"/></g>
    <g><path style="opacity:1" fill="#ffe436" d="M 28.5,9.5 C 35.4863,9.33101 37.153,12.1643 33.5,18C 26.4159,18.475 24.7492,15.6417 28.5,9.5 Z"/></g>
    <g><path style="opacity:0.879" fill="#8dc448" d="M 37.5,30.5 C 33.737,30.8572 30.0704,31.6905 26.5,33C 25.6198,34.3561 25.2865,35.8561 25.5,37.5C 24.5489,38.9187 24.2155,40.5853 24.5,42.5C 23.448,42.6495 22.448,42.4828 21.5,42C 20.9473,40.1222 19.9473,38.6222 18.5,37.5C 19.7279,35.9902 19.7279,34.4902 18.5,33C 14.8672,30.35 10.8672,28.5167 6.5,27.5C 10.5311,25.5613 14.8645,25.0613 19.5,26C 20,26.5 20.5,27 21,27.5C 21.3333,30.1667 21.6667,32.8333 22,35.5C 24.3163,34.4776 24.8163,32.9776 23.5,31C 24.4734,28.4526 26.3067,26.9526 29,26.5C 32.3505,26.9184 35.1838,28.2518 37.5,30.5 Z"/></g>
    <g><path style="opacity:1" fill="#6da23a" d="M 6.5,27.5 C 10.8672,28.5167 14.8672,30.35 18.5,33C 19.7279,34.4902 19.7279,35.9902 18.5,37.5C 16.476,39.8814 14.1427,40.0481 11.5,38C 9.42073,34.6756 7.75406,31.1756 6.5,27.5 Z"/></g>
    <g><path style="opacity:1" fill="#6da339" d="M 37.5,30.5 C 36.0553,33.1182 34.3887,35.6182 32.5,38C 29.9615,38.7958 27.6282,38.6291 25.5,37.5C 25.2865,35.8561 25.6198,34.3561 26.5,33C 30.0704,31.6905 33.737,30.8572 37.5,30.5 Z"/></g>
</svg>
